<svg width="35" height="35" viewBox="0 0 35 35" fill="none" xmlns="http://www.w3.org/2000/svg">
<path d="M4.77305 0.00044755C4.36599 0.00044755 3.95848 0.155507 3.64826 0.466522L0.466522 3.64826C-0.155507 4.27029 -0.155507 5.27741 0.466522 5.89785L12.0687 17.5L0.466522 29.1022C-0.155507 29.7242 -0.155507 30.7313 0.466522 31.3517L3.64826 34.5335C4.27029 35.1555 5.27741 35.1555 5.89785 34.5335L17.5 22.9313L29.1022 34.5335C29.7226 35.1555 30.7313 35.1555 31.3517 34.5335L34.5335 31.3517C35.1555 30.7297 35.1555 29.7226 34.5335 29.1022L22.9313 17.5L34.5335 5.89785C35.1555 5.27741 35.1555 4.2687 34.5335 3.64826L31.3517 0.466522C30.7297 -0.155507 29.7226 -0.155507 29.1022 0.466522L17.5 12.0687L5.89785 0.466522C5.58683 0.155507 5.18012 0.00044755 4.77305 0.00044755Z" fill="white"/>
</svg>
