<svg width="40" height="25" viewBox="0 0 40 25" fill="none" xmlns="http://www.w3.org/2000/svg">
<path d="M1.55867 0.000153689C1.35502 -0.00272631 1.15284 0.034896 0.963866 0.110834C0.774892 0.186772 0.602893 0.299511 0.457868 0.4425C0.312843 0.585488 0.197683 0.755875 0.11908 0.943757C0.0404774 1.13164 0 1.33327 0 1.53693C0 1.74059 0.0404774 1.94222 0.11908 2.13011C0.197683 2.31799 0.312843 2.48838 0.457868 2.63136C0.602893 2.77435 0.774892 2.88709 0.963866 2.96303C1.15284 3.03897 1.35502 3.07659 1.55867 3.07371H38.4413C38.645 3.07659 38.8472 3.03897 39.0361 2.96303C39.2251 2.88709 39.3971 2.77435 39.5421 2.63136C39.6872 2.48838 39.8023 2.31799 39.8809 2.13011C39.9595 1.94222 40 1.74059 40 1.53693C40 1.33327 39.9595 1.13164 39.8809 0.943757C39.8023 0.755875 39.6872 0.585488 39.5421 0.4425C39.3971 0.299511 39.2251 0.186772 39.0361 0.110834C38.8472 0.034896 38.645 -0.00272631 38.4413 0.000153689H1.55867ZM1.55867 10.7576C1.35502 10.7547 1.15284 10.7923 0.963866 10.8683C0.774892 10.9442 0.602893 11.057 0.457868 11.1999C0.312843 11.3429 0.197683 11.5133 0.11908 11.7012C0.0404774 11.8891 0 12.0907 0 12.2944C0 12.498 0.0404774 12.6997 0.11908 12.8876C0.197683 13.0754 0.312843 13.2458 0.457868 13.3888C0.602893 13.5318 0.774892 13.6445 0.963866 13.7205C1.15284 13.7964 1.35502 13.834 1.55867 13.8312H38.4413C38.645 13.834 38.8472 13.7964 39.0361 13.7205C39.2251 13.6445 39.3971 13.5318 39.5421 13.3888C39.6872 13.2458 39.8023 13.0754 39.8809 12.8876C39.9595 12.6997 40 12.498 40 12.2944C40 12.0907 39.9595 11.8891 39.8809 11.7012C39.8023 11.5133 39.6872 11.3429 39.5421 11.1999C39.3971 11.057 39.2251 10.9442 39.0361 10.8683C38.8472 10.7923 38.645 10.7547 38.4413 10.7576H1.55867ZM1.55867 21.515C1.35502 21.5122 1.15284 21.5498 0.963866 21.6257C0.774892 21.7017 0.602893 21.8144 0.457868 21.9574C0.312843 22.1004 0.197683 22.2708 0.11908 22.4587C0.0404774 22.6465 0 22.8482 0 23.0518C0 23.2555 0.0404774 23.4571 0.11908 23.645C0.197683 23.8329 0.312843 24.0033 0.457868 24.1463C0.602893 24.2892 0.774892 24.402 0.963866 24.4779C1.15284 24.5539 1.35502 24.5915 1.55867 24.5886H38.4413C38.645 24.5915 38.8472 24.5539 39.0361 24.4779C39.2251 24.402 39.3971 24.2892 39.5421 24.1463C39.6872 24.0033 39.8023 23.8329 39.8809 23.645C39.9595 23.4571 40 23.2555 40 23.0518C40 22.8482 39.9595 22.6465 39.8809 22.4587C39.8023 22.2708 39.6872 22.1004 39.5421 21.9574C39.3971 21.8144 39.2251 21.7017 39.0361 21.6257C38.8472 21.5498 38.645 21.5122 38.4413 21.515H1.55867Z" fill="white"/>
</svg>
